<?xml version="1.0" encoding="utf-8"?>
<!-- Generator: Adobe Illustrator 23.0.6, SVG Export Plug-In . SVG Version: 6.00 Build 0)  -->
<svg version="1.1" id="Layer_1" xmlns="http://www.w3.org/2000/svg" xmlns:xlink="http://www.w3.org/1999/xlink" x="0px" y="0px"
	 viewBox="0 0 439.94 197.44" style="enable-background:new 0 0 439.94 197.44;" xml:space="preserve">
<style type="text/css">
	.st0{fill:#FFFFFF;}
</style>
<g>
	<g>
		<path class="st0" d="M130.75,114.05v-8.43h68.13v8.43h-28.76v71.3h-9.02v-71.3H130.75z"/>
		<path class="st0" d="M226.34,141.91l-0.4-0.89c0.4-0.26,0.88-0.51,1.44-0.74c0.56-0.23,1.16-0.43,1.78-0.6
			c0.63-0.16,1.24-0.33,1.83-0.5c0.59-0.17,1.06-0.31,1.39-0.45c2.71-0.93,4.91-2.31,6.59-4.17c1.69-1.85,2.53-4.26,2.53-7.24
			c0-2.45-0.63-4.73-1.88-6.84c-1.26-2.12-3.11-3.64-5.55-4.56c-0.4-0.13-0.93-0.31-1.59-0.55c-0.66-0.23-1.31-0.45-1.93-0.64
			c-0.63-0.2-1.17-0.36-1.64-0.5c-0.46-0.13-0.73-0.2-0.79-0.2h-25.88v-8.03h26.28c0.07,0,0.28,0.03,0.64,0.1
			c0.36,0.07,0.78,0.15,1.24,0.25c0.46,0.1,0.93,0.2,1.39,0.3c0.46,0.1,0.83,0.18,1.09,0.25c5.22,1.32,9.47,3.67,12.74,7.04
			c3.27,3.37,4.91,7.87,4.91,13.49c0,4.1-1.01,7.57-3.02,10.41c-2.02,2.84-4.78,5.32-8.28,7.44v0.89l25.19,38.77h-10.21
			L226.34,141.91z"/>
		<path class="st0" d="M279.49,106.11v79.23h-8.63v-79.23H279.49z"/>
		<path class="st0" d="M295.16,106.01v48.69c0,0.2,0.07,0.58,0.2,1.14c0.13,0.56,0.26,1.19,0.4,1.88c0.13,0.69,0.28,1.37,0.45,2.03
			c0.16,0.66,0.31,1.16,0.45,1.49c0.79,2.45,1.98,4.68,3.57,6.69c1.59,2.02,3.42,3.74,5.5,5.16c2.08,1.42,4.33,2.53,6.74,3.32
			c2.41,0.79,4.91,1.19,7.49,1.19c2.51,0,4.96-0.33,7.34-0.99c2.38-0.66,4.59-1.64,6.64-2.92c2.05-1.29,3.88-2.88,5.5-4.76
			c1.62-1.88,2.89-4.02,3.82-6.4c0.13-0.26,0.28-0.66,0.45-1.19c0.16-0.53,0.33-1.04,0.5-1.54c0.16-0.5,0.3-0.94,0.4-1.34
			c0.1-0.4,0.15-0.63,0.15-0.69v-51.76h8.43v52.56c0,2.38-0.54,4.74-1.64,7.09s-2.3,4.48-3.62,6.4c-3.44,4.76-7.6,8.33-12.5,10.71
			c-4.89,2.38-10.28,3.57-16.16,3.57c-4.23,0-8.28-0.78-12.15-2.33c-3.87-1.55-7.29-3.72-10.26-6.5c-2.98-2.78-5.34-6.03-7.09-9.77
			c-1.75-3.73-2.63-7.78-2.63-12.15v-49.58H295.16z"/>
		<path class="st0" d="M425.76,122.38l-25.68,31.24h-0.3h-0.2c-0.13-0.13-0.35-0.35-0.64-0.64s-0.51-0.51-0.64-0.64L361,106.51
			l0.4-0.4h9.82c0.26,0,0.53,0.1,0.79,0.3c0.26,0.2,0.46,0.36,0.59,0.5l25.68,32.53c0.13,0.13,0.35,0.36,0.64,0.69
			c0.3,0.33,0.51,0.53,0.64,0.59h0.2h0.3l0.2-0.2l0.2-0.2l25.98-34.21h9.52v79.23h-8.73v-64.26L425.76,122.38z"/>
	</g>
	<polygon class="st0" points="0,183.29 68.51,0 134.36,185.35 122.44,185.35 68.51,29.02 11.2,183.97 	"/>
	<polygon class="st0" points="65.79,114.04 198.4,114.04 198.4,105.62 68.94,105.62 	"/>
</g>
</svg>
